<svg xmlns="http://www.w3.org/2000/svg" width="81.888" height="61.416" viewBox="0 0 81.888 61.416">
  <g id="cash-stack" transform="translate(-46 42)">
    <path id="Trazado_58" data-name="Trazado 58" d="M1,7.118A5.118,5.118,0,0,1,6.118,2H67.534a5.118,5.118,0,0,1,5.118,5.118ZM36.826,48.062A10.236,10.236,0,1,0,26.59,37.826,10.236,10.236,0,0,0,36.826,48.062" transform="translate(50.118 -44)" fill="#efece8"/>
    <path id="Trazado_59" data-name="Trazado 59" d="M0,9.118A5.118,5.118,0,0,1,5.118,4H76.77a5.118,5.118,0,0,1,5.118,5.118V50.062A5.118,5.118,0,0,1,76.77,55.18H5.118A5.118,5.118,0,0,1,0,50.062Zm15.354,0A10.236,10.236,0,0,1,5.118,19.354V39.826A10.236,10.236,0,0,1,15.354,50.062h51.18A10.236,10.236,0,0,1,76.77,39.826V19.354A10.236,10.236,0,0,1,66.534,9.118Z" transform="translate(46 -35.764)" fill="#efece8"/>
  </g>
</svg>
