<svg id="cloud-upload" xmlns="http://www.w3.org/2000/svg" width="53.813" height="50.45" viewBox="0 0 53.813 50.45">
  <path id="Trazado_70" data-name="Trazado 70" d="M14.819,4.514A18.6,18.6,0,0,1,26.907,0,17.275,17.275,0,0,1,44.282,15.4a10.951,10.951,0,0,1,9.532,10.742A11,11,0,0,1,42.67,37H33.633a1.682,1.682,0,0,1,0-3.363h9.041a7.639,7.639,0,0,0,7.776-7.49A7.639,7.639,0,0,0,42.67,18.65H40.989V16.968a13.844,13.844,0,0,0-14.082-13.6,15.236,15.236,0,0,0-9.892,3.7c-2.546,2.193-3.878,4.836-3.878,6.912v1.507l-1.5.165a9.146,9.146,0,0,0-8.277,8.967,9.19,9.19,0,0,0,9.353,9.02H20.18a1.682,1.682,0,0,1,0,3.363H12.717A12.555,12.555,0,0,1,0,24.613,12.468,12.468,0,0,1,9.895,12.528a14.144,14.144,0,0,1,4.924-8.015" fill="#b9b9b9" fill-rule="evenodd"/>
  <path id="Trazado_71" data-name="Trazado 71" d="M25.716,13.944a1.682,1.682,0,0,1,2.381,0l10.09,10.09a1.684,1.684,0,1,1-2.381,2.381l-7.218-7.221V48.768a1.682,1.682,0,1,1-3.363,0V19.194l-7.218,7.221a1.684,1.684,0,0,1-2.381-2.381Z" fill="#b9b9b9" fill-rule="evenodd"/>
</svg>
