<svg xmlns="http://www.w3.org/2000/svg" width="59.366" height="40.814" viewBox="0 0 59.366 40.814">
  <g id="Grupo_3" data-name="Grupo 3" transform="translate(-1035 -3043.093)">
    <path id="Trazado_1" data-name="Trazado 1" d="M24.867,6.544a1.855,1.855,0,0,1,0,2.627L13.736,20.3a1.855,1.855,0,0,1-2.627,0L5.543,14.737A1.858,1.858,0,1,1,8.17,12.11l4.252,4.256L22.24,6.544a1.855,1.855,0,0,1,2.627,0" transform="translate(1048.55 3051.932)" fill="#b9b9b9" fill-rule="evenodd"/>
    <path id="Trazado_2" data-name="Trazado 2" d="M16.348,6.979A20.518,20.518,0,0,1,29.683,2,19.058,19.058,0,0,1,48.851,18.99a11.958,11.958,0,0,1-1.777,23.824H14.029A13.85,13.85,0,0,1,0,29.152,13.755,13.755,0,0,1,10.916,15.821a15.6,15.6,0,0,1,5.432-8.842m2.423,2.809c-2.809,2.423-4.278,5.343-4.278,7.629v1.662l-1.651.182A10.09,10.09,0,0,0,3.71,29.152,10.138,10.138,0,0,0,14.029,39.1H47.073a8.426,8.426,0,0,0,8.582-8.263,8.427,8.427,0,0,0-8.582-8.267H45.218V20.719A15.273,15.273,0,0,0,29.683,5.71,16.808,16.808,0,0,0,18.771,9.792Z" transform="translate(1035 3041.093)" fill="#b9b9b9"/>
  </g>
</svg>
