<svg xmlns="http://www.w3.org/2000/svg" width="59.366" height="44.524" viewBox="0 0 59.366 44.524">
  <g id="Grupo_2" data-name="Grupo 2" transform="translate(-1390.875 -3041.238)">
    <path id="Trazado_3" data-name="Trazado 3" d="M8.931,5.344A1.855,1.855,0,0,0,6,6.854V25.406a1.855,1.855,0,0,0,2.931,1.51L21.917,17.64a1.855,1.855,0,0,0,0-3.02Z" transform="translate(1407.137 3047.37)" fill="#b9b9b9"/>
    <path id="Trazado_4" data-name="Trazado 4" d="M0,9.421A7.421,7.421,0,0,1,7.421,2H51.945a7.421,7.421,0,0,1,7.421,7.421V39.1a7.421,7.421,0,0,1-7.421,7.421H7.421A7.421,7.421,0,0,1,0,39.1Zm55.656,0a3.71,3.71,0,0,0-3.71-3.71H7.421a3.71,3.71,0,0,0-3.71,3.71V39.1a3.71,3.71,0,0,0,3.71,3.71H51.945a3.71,3.71,0,0,0,3.71-3.71Z" transform="translate(1390.875 3039.238)" fill="#b9b9b9"/>
  </g>
</svg>
