<svg id="send-arrow-down-fill" xmlns="http://www.w3.org/2000/svg" width="81.886" height="81.893" viewBox="0 0 81.886 81.893">
  <path id="Trazado_66" data-name="Trazado 66" d="M81.139.751A2.559,2.559,0,0,1,81.7,3.515L66.665,41.1A23.031,23.031,0,0,0,40.942,63.979c0,2.559,0,7.677-3.956,1.842L28.848,53.037,3.294,36.772l-.01-.005-2.1-1.336A2.559,2.559,0,0,1,1.61,30.9l2.313-.921.005-.005L78.375.183a2.559,2.559,0,0,1,2.764.568M33.966,51.542,72.32,13.188l2.411-6.029L68.7,9.569,30.347,47.924l1.73,1.1a2.559,2.559,0,0,1,.788.788Z" transform="translate(-0.001 0.001)" fill="#efece8" fill-rule="evenodd"/>
  <path id="Trazado_67" data-name="Trazado 67" d="M26.913,44.826A17.913,17.913,0,1,0,9,26.913,17.913,17.913,0,0,0,26.913,44.826M28.725,36.4a2.559,2.559,0,0,1-3.7-.082l-5.881-6.4a2.559,2.559,0,1,1,3.772-3.46l1.433,1.561V19.236a2.559,2.559,0,0,1,5.118,0v9.177L31.5,26.381A2.562,2.562,0,0,1,35.122,30Z" transform="translate(37.059 37.067)" fill="#efece8" fill-rule="evenodd"/>
</svg>
