<svg xmlns="http://www.w3.org/2000/svg" width="66.534" height="61.416" viewBox="0 0 66.534 61.416">
  <path id="soundwave" d="M35.267,2a2.559,2.559,0,0,1,2.559,2.559v56.3a2.559,2.559,0,0,1-5.118,0V4.559A2.559,2.559,0,0,1,35.267,2M25.031,12.236A2.559,2.559,0,0,1,27.59,14.8V50.621a2.559,2.559,0,1,1-5.118,0V14.8a2.559,2.559,0,0,1,2.559-2.559m20.472,0A2.559,2.559,0,0,1,48.062,14.8V50.621a2.559,2.559,0,1,1-5.118,0V14.8A2.559,2.559,0,0,1,45.5,12.236M14.8,19.913a2.559,2.559,0,0,1,2.559,2.559V42.944a2.559,2.559,0,0,1-5.118,0V22.472A2.559,2.559,0,0,1,14.8,19.913m40.944,0A2.559,2.559,0,0,1,58.3,22.472V42.944a2.559,2.559,0,0,1-5.118,0V22.472a2.559,2.559,0,0,1,2.559-2.559M4.559,25.031A2.559,2.559,0,0,1,7.118,27.59V37.826a2.559,2.559,0,0,1-5.118,0V27.59a2.559,2.559,0,0,1,2.559-2.559m61.416,0a2.559,2.559,0,0,1,2.559,2.559V37.826a2.559,2.559,0,0,1-5.118,0V27.59a2.559,2.559,0,0,1,2.559-2.559" transform="translate(-2 -2)" fill="#efece8" fill-rule="evenodd"/>
</svg>
