<svg xmlns="http://www.w3.org/2000/svg" width="55.656" height="51.945" viewBox="0 0 55.656 51.945">
  <path id="ui-checks" d="M25.973,6.566A1.855,1.855,0,0,1,27.828,4.71H53.8a1.855,1.855,0,0,1,1.855,1.855v3.71A1.855,1.855,0,0,1,53.8,12.131H27.828a1.855,1.855,0,0,1-1.855-1.855ZM7.421,1A7.421,7.421,0,0,0,0,8.421v7.421a7.421,7.421,0,0,0,7.421,7.421h7.421a7.421,7.421,0,0,0,7.421-7.421V8.421A7.421,7.421,0,0,0,14.841,1Zm0,29.683A7.421,7.421,0,0,0,0,38.1v7.421a7.421,7.421,0,0,0,7.421,7.421h7.421a7.421,7.421,0,0,0,7.421-7.421V38.1a7.421,7.421,0,0,0-7.421-7.421Zm3.169-13.528a1.855,1.855,0,0,1-2.627,0l-3.71-3.71a1.858,1.858,0,0,1,2.627-2.627l2.4,2.4,6.107-6.111A1.858,1.858,0,1,1,18.01,9.734Zm0,29.683a1.855,1.855,0,0,1-2.627,0l-3.71-3.71A1.858,1.858,0,0,1,6.879,40.5l2.4,2.4,6.107-6.111a1.858,1.858,0,0,1,2.627,2.627ZM25.973,36.248a1.855,1.855,0,0,1,1.855-1.855H53.8a1.855,1.855,0,0,1,1.855,1.855v3.71A1.855,1.855,0,0,1,53.8,41.814H27.828a1.855,1.855,0,0,1-1.855-1.855Zm0-18.552a1.855,1.855,0,0,1,1.855-1.855H46.38a1.855,1.855,0,0,1,0,3.71H27.828A1.855,1.855,0,0,1,25.973,17.7m0,29.683a1.855,1.855,0,0,1,1.855-1.855H46.38a1.855,1.855,0,1,1,0,3.71H27.828a1.855,1.855,0,0,1-1.855-1.855" transform="translate(0 -1)" fill="#b9b9b9"/>
</svg>
