<svg xmlns="http://www.w3.org/2000/svg" width="42.809" height="43.002" viewBox="0 0 42.809 43.002">
  <path id="whatsapp" d="M36.554,6.251A21.1,21.1,0,0,0,21.485,0,21.324,21.324,0,0,0,3.013,31.959L0,43,11.3,40.04a21.232,21.232,0,0,0,10.186,2.594H21.5A21.3,21.3,0,0,0,36.552,6.251ZM21.485,39.027a17.738,17.738,0,0,1-9.02-2.473l-.645-.387-6.7,1.758,1.79-6.539-.419-.675a17.7,17.7,0,1,1,15,8.315M31.2,25.766c-.529-.266-3.145-1.553-3.636-1.736s-.847-.266-1.2.266-1.379,1.736-1.685,2.083-.624.4-1.156.134a14.538,14.538,0,0,1-4.279-2.647,16.248,16.248,0,0,1-2.964-3.687c-.306-.532-.03-.817.237-1.083.234-.237.529-.624.8-.93a3.4,3.4,0,0,0,.532-.887.991.991,0,0,0-.04-.933c-.134-.266-1.2-2.892-1.645-3.951-.43-1.045-.868-.9-1.2-.914-.306-.019-.664-.019-1.021-.019a1.962,1.962,0,0,0-1.422.664,5.967,5.967,0,0,0-1.857,4.445,10.316,10.316,0,0,0,2.177,5.507c.263.357,3.747,5.73,9.092,8.041a29.621,29.621,0,0,0,3.034,1.123,7.314,7.314,0,0,0,3.349.215c1.021-.156,3.147-1.29,3.6-2.534a4.458,4.458,0,0,0,.306-2.534c-.132-.226-.489-.357-1.021-.624" fill="#fff"/>
</svg>
