<svg xmlns="http://www.w3.org/2000/svg" width="50.45" height="50.45" viewBox="0 0 50.45 50.45">
  <path id="film" d="M0,3.153A3.153,3.153,0,0,1,3.153,0H47.3A3.153,3.153,0,0,1,50.45,3.153V47.3A3.153,3.153,0,0,1,47.3,50.45H3.153A3.153,3.153,0,0,1,0,47.3Zm12.612,0V22.072H37.837V3.153ZM37.837,28.378H12.612V47.3H37.837ZM3.153,3.153V9.459H9.459V3.153Zm6.306,9.459H3.153v6.306H9.459ZM3.153,22.072v6.306H9.459V22.072Zm6.306,9.459H3.153v6.306H9.459ZM3.153,40.991V47.3H9.459V40.991ZM47.3,3.153H40.991V9.459H47.3Zm-6.306,9.459v6.306H47.3V12.612ZM47.3,22.072H40.991v6.306H47.3Zm-6.306,9.459v6.306H47.3V31.531ZM47.3,40.991H40.991V47.3H47.3Z" fill="#b9b9b9"/>
</svg>
