<svg xmlns="http://www.w3.org/2000/svg" width="81.888" height="67.066" viewBox="0 0 81.888 67.066">
  <path id="book" d="M5.118,10.785a64.174,64.174,0,0,1,17.34-4.57c6.807-.686,12.58.322,15.927,3.849v49.88C33.6,57.23,27.535,56.857,21.941,57.42A68.441,68.441,0,0,0,5.118,61.571ZM43.5,10.063c3.347-3.526,9.12-4.535,15.927-3.849a64.174,64.174,0,0,1,17.34,4.57V61.571a68.045,68.045,0,0,0-16.823-4.146c-5.6-.568-11.659-.2-16.444,2.518ZM40.944,5.436C35.9,1.1,28.594.456,21.941,1.122A69.712,69.712,0,0,0,1.5,6.777,2.559,2.559,0,0,0,0,9.106V65.4a2.559,2.559,0,0,0,3.618,2.329,64.79,64.79,0,0,1,18.834-5.22c7.211-.727,13.256.445,16.5,4.488a2.559,2.559,0,0,0,3.992,0c3.24-4.043,9.284-5.215,16.49-4.488a64.735,64.735,0,0,1,18.839,5.22A2.559,2.559,0,0,0,81.888,65.4V9.106a2.559,2.559,0,0,0-1.5-2.329A69.712,69.712,0,0,0,59.947,1.122c-6.653-.67-13.962-.02-19,4.314" transform="translate(0 -0.896)" fill="#efece8"/>
</svg>
