<svg id="file-earmark-lock2" xmlns="http://www.w3.org/2000/svg" width="61.416" height="81.888" viewBox="0 0 61.416 81.888">
  <path id="Trazado_62" data-name="Trazado 62" d="M30.59,15.236v5.507c2.764.85,5.118,3.055,5.118,6.264V39.291c0,4.176-4,6.653-7.677,6.653H12.677C9,45.944,5,43.467,5,39.291V27.007c0-3.209,2.354-5.415,5.118-6.264V15.236a10.236,10.236,0,1,1,20.472,0m-15.354,0v5.118H25.472V15.236a5.118,5.118,0,0,0-10.236,0" transform="translate(10.354 20.59)" fill="#efece8"/>
  <path id="Trazado_63" data-name="Trazado 63" d="M63.416,71.652V23.031L40.385,0H12.236A10.236,10.236,0,0,0,2,10.236V71.652A10.236,10.236,0,0,0,12.236,81.888H53.18A10.236,10.236,0,0,0,63.416,71.652m-23.031-56.3a7.677,7.677,0,0,0,7.677,7.677H58.3V71.652A5.118,5.118,0,0,1,53.18,76.77H12.236a5.118,5.118,0,0,1-5.118-5.118V10.236a5.118,5.118,0,0,1,5.118-5.118H40.385Z" transform="translate(-2)" fill="#efece8"/>
</svg>
