<svg id="palette" xmlns="http://www.w3.org/2000/svg" width="81.888" height="81.888" viewBox="0 0 81.888 81.888">
  <path id="Trazado_64" data-name="Trazado 64" d="M30.649,17.354a7.677,7.677,0,1,0-7.677-7.677,7.677,7.677,0,0,0,7.677,7.677M51.121,32.708a7.677,7.677,0,1,0-7.677-7.677,7.677,7.677,0,0,0,7.677,7.677M17.854,27.59a7.677,7.677,0,1,1-7.677-7.677,7.677,7.677,0,0,1,7.677,7.677M20.413,58.3a7.677,7.677,0,1,0-7.677-7.677A7.677,7.677,0,0,0,20.413,58.3" transform="translate(10.295 8.236)" fill="#efece8"/>
  <path id="Trazado_65" data-name="Trazado 65" d="M81.888,40.944c0,16.122-9.55,13.23-18.256,10.594-5.185-1.571-10.072-3.055-12.452-.358-3.086,3.5-2.431,9.31-1.8,14.945.906,8.061,1.776,15.763-8.44,15.763A40.944,40.944,0,1,1,81.888,40.944M40.944,76.77c3.127,0,3.347-.875,3.352-.9.4-.747.635-2.375.358-5.727-.072-.86-.189-1.894-.312-3.025-.266-2.375-.573-5.144-.6-7.483-.051-3.618.425-8.24,3.6-11.843a9.681,9.681,0,0,1,6.51-3.163,19.3,19.3,0,0,1,5.937.532c1.755.394,3.593.952,5.246,1.454l.143.041c1.771.537,3.368,1.018,4.877,1.361,3.342.757,4.627.425,5.072.123.194-.133,1.643-1.254,1.643-7.2A35.826,35.826,0,1,0,40.944,76.77" fill="#efece8"/>
</svg>
