<svg xmlns="http://www.w3.org/2000/svg" width="43.395" height="43.591" viewBox="0 0 43.395 43.591">
  <path id="whatsapp" d="M37.055,6.337A21.387,21.387,0,0,0,21.779,0,21.616,21.616,0,0,0,3.054,32.4L0,43.591l11.454-3a21.523,21.523,0,0,0,10.326,2.629h.011A21.594,21.594,0,0,0,37.052,6.337ZM21.779,39.561a17.981,17.981,0,0,1-9.143-2.506l-.654-.392L5.187,38.444,7,31.816l-.425-.684a17.947,17.947,0,1,1,15.2,8.429m9.849-13.442c-.537-.27-3.188-1.575-3.686-1.76s-.858-.27-1.212.27-1.4,1.76-1.708,2.111-.632.4-1.172.136a14.738,14.738,0,0,1-4.337-2.684,16.471,16.471,0,0,1-3.005-3.738c-.311-.539-.03-.828.24-1.1.237-.24.537-.632.806-.943a3.445,3.445,0,0,0,.539-.9,1,1,0,0,0-.041-.945c-.136-.27-1.212-2.931-1.667-4-.436-1.06-.88-.913-1.212-.926-.311-.019-.673-.019-1.035-.019a1.989,1.989,0,0,0-1.441.673A6.049,6.049,0,0,0,10.813,16.8c0,2.662,1.934,5.22,2.207,5.582s3.8,5.808,9.217,8.151a30.026,30.026,0,0,0,3.076,1.139,7.414,7.414,0,0,0,3.395.218c1.035-.158,3.19-1.308,3.645-2.569a4.519,4.519,0,0,0,.311-2.569c-.133-.229-.5-.362-1.035-.632" transform="translate(0 0)" fill="#25d366"/>
</svg>
